<svg width="1066" height="173" viewBox="0 0 1066 173" fill="none" xmlns="http://www.w3.org/2000/svg">
<path d="M64.9584 5.81121C52.395 0.884403 37.6039 15.639 41.8023 24.0405L92.5487 58.5283L64.0488 72.6708L18.3998 60.7454C14.6025 59.9924 13.3431 60.8829 11.7486 63.4552L0.416901 84.1479C-0.566055 86.6519 0.228246 87.7584 2.38763 89.5674C36.1983 103.654 53.513 110.23 60.5243 110.506L121.371 84.1479L155.612 68.1356L251.439 22.5624C250.94 8.14326 239.892 -2.17128 222.124 0.391694C204.357 2.95467 145.347 37.5396 144.034 36.8503C144.034 36.8503 77.5218 10.738 64.9584 5.81121Z" fill="#7A95F5"/>
<path d="M121.371 170.715C121.498 174.164 131.905 173.055 132.949 165.933L162.093 82.2781L127.605 98.044L121.371 170.715Z" fill="#7A95F5"/>
<path d="M294.599 117.551H271.257L302.978 33.7577H326.919L358.641 117.551H335.299L329.912 102.588H299.986L294.599 117.551ZM305.373 87.0265H324.525L314.949 58.8958L305.373 87.0265ZM416.095 117.551H373.001V100.793H383.775V50.5164H373.001V33.7577H416.095V50.5164H405.322V100.793H416.095V117.551ZM438.83 33.7577H489.106C497.485 33.7577 503.55 35.673 507.301 39.5035C511.132 43.2543 513.047 49.3193 513.047 57.6987V68.4722C513.047 75.0958 511.93 80.2432 509.695 83.9141C507.54 87.5851 504.069 90.0191 499.281 91.2161L514.244 117.551H490.901L477.135 92.4132H460.377V117.551H438.83V33.7577ZM491.5 57.6987C491.5 52.9105 489.106 50.5164 484.318 50.5164H460.377V75.6545H484.318C489.106 75.6545 491.5 73.2604 491.5 68.4722V57.6987ZM534.441 100.194C556.308 101.391 571.111 101.99 578.852 101.99C580.687 101.99 582.124 101.471 583.161 100.433C584.279 99.3162 584.837 97.8398 584.837 96.0043V85.2309H557.305C548.926 85.2309 542.821 83.3555 538.99 79.6047C535.239 75.7742 533.364 69.6692 533.364 61.2899V57.6987C533.364 49.3193 535.239 43.2543 538.99 39.5035C542.821 35.673 548.926 33.7577 557.305 33.7577H599.322V50.5164H562.093C557.305 50.5164 554.911 52.9105 554.911 57.6987V60.0928C554.911 64.881 557.305 67.2751 562.093 67.2751H583.64C591.461 67.2751 597.207 69.1106 600.878 72.7815C604.549 76.4525 606.384 82.1984 606.384 90.0191V96.0043C606.384 103.825 604.549 109.571 600.878 113.242C597.207 116.913 591.461 118.748 583.64 118.748C579.57 118.748 575.261 118.669 570.712 118.509L559.699 118.03C551.559 117.631 543.14 117.072 534.441 116.354V100.194ZM695.555 117.551H629.119V33.7577H695.555V50.5164H650.666V66.6766H685.979V83.4353H650.666V100.793H695.555V117.551ZM783.51 117.551H717.074V33.7577H783.51V50.5164H738.621V66.6766H773.934V83.4353H738.621V100.793H783.51V117.551ZM826.576 117.551H805.029V33.7577H826.576V66.6766H837.35L856.024 33.7577H878.768L855.305 75.0559L878.648 117.551H855.904L837.35 83.4353H826.576V117.551ZM964.331 117.551H897.894V33.7577H964.331V50.5164H919.441V66.6766H954.754V83.4353H919.441V100.793H964.331V117.551ZM985.849 33.7577H1036.13C1044.51 33.7577 1050.57 35.673 1054.32 39.5035C1058.15 43.2543 1060.07 49.3193 1060.07 57.6987V68.4722C1060.07 75.0958 1058.95 80.2432 1056.71 83.9141C1054.56 87.5851 1051.09 90.0191 1046.3 91.2161L1061.26 117.551H1037.92L1024.16 92.4132H1007.4V117.551H985.849V33.7577ZM1038.52 57.6987C1038.52 52.9105 1036.13 50.5164 1031.34 50.5164H1007.4V75.6545H1031.34C1036.13 75.6545 1038.52 73.2604 1038.52 68.4722V57.6987Z" fill="#3251BF"/>
</svg>
