<svg width="1024" height="1024" viewBox="0 0 1024 1024" fill="none" xmlns="http://www.w3.org/2000/svg">
<g clip-path="url(#clip0_84_11)">
<mask id="mask0_84_11" style="mask-type:alpha" maskUnits="userSpaceOnUse" x="-58" y="212" width="1140" height="906">
<rect x="277.582" y="580.045" width="547.565" height="93.6171" transform="rotate(-24.9726 277.582 580.045)" fill="#7A95F5"/>
<rect x="52.2715" y="212" width="906" height="906" fill="#7A95F5"/>
<rect x="-58" y="783.584" width="1233.36" height="53.3765" transform="rotate(-25.0947 -58 783.584)" fill="#7A95F5"/>
<rect x="33.5947" y="534.055" width="369.754" height="107.984" transform="rotate(22.5939 33.5947 534.055)" fill="#7A95F5"/>
</mask>
<g mask="url(#mask0_84_11)">
<path d="M285.017 245.258C239.894 227.563 186.77 280.556 201.849 310.731L384.111 434.598L281.75 485.393L117.796 442.561C104.158 439.857 99.6341 443.055 93.9075 452.294L53.2083 526.614C49.6779 535.608 52.5307 539.581 60.2864 546.079C181.722 596.674 243.909 620.292 269.091 621.284L487.628 526.614L610.611 469.104L954.784 305.422C952.991 253.634 913.31 216.588 849.497 225.794C785.684 234.999 573.742 359.215 569.027 356.739C569.027 356.739 330.14 262.954 285.017 245.258Z" fill="#7A95F5"/>
<path d="M487.628 837.529C488.086 849.916 525.463 845.936 529.212 820.356L633.887 519.898L510.02 576.523L487.628 837.529Z" fill="#7A95F5"/>
</g>
</g>
<defs>
<clipPath id="clip0_84_11">
<rect width="1024" height="1024" fill="white"/>
</clipPath>
</defs>
</svg>
